# xmcd CD database file
#
# Track frame offsets:
#	150
#	40110
#	79532
#	98985
#	129147
#	153595
#	174042
#	205317
#	224790
#	271550
#	298962
#
# Disc length: 4457 seconds
#
# Revision: 12
# Processed by: cddbd v1.5.2PL0 Copyright (c) Steve Scherf et al.
# Submitted via: CDex 1.78
#
DISCID=9511670b
DTITLE=The Allamn Brothers Band - The Best Of The Allman Brothers Band Live
DYEAR=1996
DGENRE=Southern Rock
TTITLE0=Jessica
TTITLE1=Stormy Monday
TTITLE2=Statesboro Blues
TTITLE3=Can't Lose What You Never Had
TTITLE4=Ain't Wastin' No More Time
TTITLE5=Done Sombody Wrong
TTITLE6=Ramblin' Man
TTITLE7=Don't Mess Up A Goog Thing
TTITLE8=Turn On Your Love Light
TTITLE9=Will The Circle Be Unbroken
TTITLE10=Queen Of Hearts
EXTD=YEAR: 1996
EXTT0=
EXTT1=
EXTT2=
EXTT3=
EXTT4=
EXTT5=
EXTT6=
EXTT7=
EXTT8=
EXTT9=
EXTT10=
PLAYORDER=
